<?xml version="1.0" encoding="UTF-8"?>
<!DOCTYPE svg PUBLIC "-//W3C//DTD SVG 1.1//EN" "http://www.w3.org/Graphics/SVG/1.1/DTD/svg11.dtd">
<!-- Creator: CorelDRAW -->
<svg xmlns="http://www.w3.org/2000/svg" xml:space="preserve" width="4.36163in" height="3.94941in" version="1.1" style="shape-rendering:geometricPrecision; text-rendering:geometricPrecision; image-rendering:optimizeQuality; fill-rule:evenodd; clip-rule:evenodd"
viewBox="0 0 4323.32 3914.72"
 xmlns:xlink="http://www.w3.org/1999/xlink"
 xmlns:xodm="http://www.corel.com/coreldraw/odm/2003">
 <defs>
  <style type="text/css">
   <![CDATA[
    .str1 {stroke:#263238;stroke-width:12.04;stroke-miterlimit:2.61313}
    .str0 {stroke:#263238;stroke-width:12.04;stroke-linecap:round;stroke-linejoin:round;stroke-miterlimit:2.61313}
    .fil4 {fill:none;fill-rule:nonzero}
    .fil2 {fill:#263238;fill-rule:nonzero}
    .fil5 {fill:#4C4C4C;fill-rule:nonzero}
    .fil0 {fill:#7480FF;fill-rule:nonzero}
    .fil6 {fill:#CCCCCC;fill-rule:nonzero}
    .fil7 {fill:white;fill-rule:nonzero}
    .fil1 {fill:white;fill-rule:nonzero;fill-opacity:0.701961}
    .fil3 {fill:url(#id2)}
   ]]>
  </style>
   <clipPath id="id0" style="clip-rule:nonzero">
    <path d="M456.79 1116.66l0 -260.06c0,-95.83 39.82,-182.74 104.12,-245.68 64.27,-62.92 152.99,-101.9 250.79,-101.9 97.8,0 186.52,38.97 250.79,101.9 64.29,62.94 104.12,149.85 104.12,245.68l0 260.06 127.04 0 0 -260.06c0,-130.03 -54.04,-247.96 -141.28,-333.38 -87.26,-85.42 -207.76,-138.35 -340.67,-138.35 -132.91,0 -253.41,52.92 -340.67,138.35 -87.24,85.42 -141.28,203.35 -141.28,333.38l0 260.06 127.04 0zm12.04 -260.06l0 261.61 685.74 -1.17 0 -260.44c0,-92.49 -38.44,-176.37 -100.5,-237.12 -62.08,-60.77 -147.81,-98.42 -242.37,-98.42 -94.56,0 -180.3,37.64 -242.37,98.42 -62.06,60.75 -100.5,144.63 -100.5,237.12zm836.86 0l0 260.18 31.77 -0.08c3.32,0 6.02,2.7 6.02,6.02l0 883.07c0,3.32 -2.7,6.02 -6.02,6.02l-1065.35 0c-3.32,0 -6.02,-2.7 -6.02,-6.02l0 -881.25c0.02,-3.31 2.71,-6 6.02,-6l45.6 -0.08 0 -261.86c0,-133.37 55.42,-254.33 144.9,-341.94 89.45,-87.57 212.93,-141.83 349.09,-141.83 136.16,0 259.64,54.26 349.09,141.83 89.48,87.61 144.9,208.57 144.9,341.94zm-1027.56 273.93l0 869.25 1053.31 0 0 -871.04 -1053.31 1.79zm631.43 359.77c-0.99,-29.54 -13.59,-56.07 -33.35,-75.24 -19.82,-19.24 -46.88,-31.07 -76.64,-31.07 -29.75,0 -56.82,11.83 -76.64,31.07 -19.84,19.26 -32.47,45.94 -33.36,75.63 0.14,19.81 5.75,38.82 15.72,55.17 9.99,16.4 24.37,30.13 41.97,39.34 2.22,1.16 3.41,3.52 3.2,5.88l-18.88 193.51 135.96 0 -18.87 -193.51c-0.25,-2.59 1.19,-4.95 3.42,-6 17.51,-9.21 31.8,-22.89 41.76,-39.22 9.9,-16.25 15.51,-35.13 15.72,-54.81l-0.02 -0.75zm-24.97 -83.85c21.96,21.31 35.95,50.85 36.98,83.75l0.01 0.38c-0.13,22.13 -6.37,43.33 -17.47,61.54 -10.41,17.08 -25.12,31.56 -43.1,41.76l19.18 196.74c0,3.32 -2.7,6.02 -6.02,6.02l-149.2 0 -0.57 -0.05c-3.3,-0.31 -5.72,-3.24 -5.41,-6.54l19.15 -196.16c-17.97,-10.2 -32.69,-24.68 -43.1,-41.76 -11.07,-18.16 -17.3,-39.29 -17.46,-61.34l0 -0.37c0.98,-32.98 14.98,-62.59 36.98,-83.95 22.01,-21.37 52.04,-34.51 85.01,-34.51 32.98,0 63,13.13 85.01,34.5z"/>
   </clipPath>
   <clipPath id="id1" style="clip-rule:nonzero">
    <path d="M3213.33 597.34l0 22.61 -55.03 0 0 80.12 67.63 -0 0 23.13 -92.92 0 0 -225.09 92.92 0 0 22.82 -67.63 0 0 76.82 55.03 -0.41zm734.12 474.65c0,-72.28 -25.19,-91.89 -65.46,-91.89 -40.27,0 -65.46,21.79 -65.46,79.3l0 51.63 -119.36 0 0 -43.68c0,-128.55 64.22,-202.06 188.33,-202.06 124.11,0 188.33,73.51 188.33,202.06l0 20.65c0,86.11 -27.57,140.11 -88.49,165.2 63.19,27.57 88.49,87.25 88.49,168.82l0 63.19c0,128.65 -64.33,202.06 -188.33,202.06 -124,0 -188.33,-73.41 -188.33,-202.06l0 -66.6 119.36 0 0 74.65c0,57.41 25.3,79.2 65.46,79.2 40.17,0 65.46,-19.52 65.46,-90.65l0 -63.19c0,-74.65 -25.19,-102.22 -82.6,-102.22l-42.33 0 0 -114.61 49.35 0c47.08,0 75.79,-20.65 75.79,-84.98l-0.21 -44.82zm-708.51 -4.64c0,-128.55 67.73,-202.06 191.74,-202.06 124,0 191.84,73.51 191.84,202.06l0 418.07c0,128.65 -67.84,202.06 -191.84,202.06 -124.01,0 -191.74,-73.41 -191.74,-202.06l0 -418.07zm126.28 426.12c0,57.41 25.3,79.2 65.46,79.2 40.17,0 65.46,-21.79 65.46,-79.2l0 -433.66c0,-57.51 -25.19,-79.3 -65.46,-79.3 -40.27,0 -65.46,21.79 -65.46,79.3l0 433.66zm-600.62 -75.79l229.74 -543.21 137.84 0 0 543.21 59.68 0 0 114.82 -59.68 0 0 145.79 -123.9 0 0 -145.79 -243.68 0 0 -114.82zm243.47 0l0 -302.11 -127.41 302.01 127.41 0.1zm846.25 704.9l-22.51 0 0 -225.09 32.01 0 51.63 162.72 0 -162.72 22.2 0 0 225.09 -26.12 0 -57.51 -182.03 0.31 182.03zm-57.92 -125.45l0 22.51 -55.04 0 0 80.12 67.63 0 0 22.82 -92.92 0 0 -225.09 92.92 0 0 22.82 -67.63 0 0 76.82 55.04 0zm-154.67 -99.64c35,0 51.11,20.65 51.11,55.96l0 113.58c0,34.49 -16.11,55.65 -51.11,55.65l-52.76 0 0 -225.09 52.76 -0.1zm0 202.27c17.97,0 26.64,-11.25 26.64,-31.8l0 -116.06c0,-20.65 -8.68,-31.8 -26.95,-31.8l-27.05 0 0 179.45 27.36 0.21zm-127.41 -202.27c35.11,0 51.63,20.65 51.63,55.96l0 113.58c0,34.49 -16.11,55.65 -51.63,55.65l-52.66 0 0 -225.09 52.66 -0.1zm0 202.27c18.07,0 26.74,-11.25 26.74,-31.8l0 -116.06c0,-20.65 -8.68,-31.8 -27.05,-31.8l-27.05 0 0 179.45 27.36 0.21zm-78.47 -202.27l0 225.09 -25.09 0 0 -225.09 25.09 0zm-100.67 0c35.11,0 48.94,16.73 48.94,49.87l0 10.33c0,23.85 -6.81,38.61 -26.43,44.71 21.89,6.2 30.25,23.54 30.25,48.32l0 18.9c0,33.87 -16.42,52.76 -51.63,52.76l-51.63 0 0 -225.09 50.49 0.21zm-6.09 95.51c19.93,0 30.25,-6.4 30.25,-29.94l0 -13.22c0,-19.93 -6.81,-29.53 -24.78,-29.53l-24.78 0 0 72.28 19.31 0.41zm7.43 106.76c18.28,0 26.64,-9.6 26.64,-30.98l0 -19.93c0,-25.09 -10.33,-33.46 -31.49,-33.46l-21.89 0 0 83.95 26.74 0.41zm-128.34 -202.27c35.31,0 50.18,17.97 50.18,51.63l0 18.38c0,24.78 -8.68,40.16 -27.98,46.26 20.65,6.09 28.29,22.82 28.29,46.98l0 35.11c-0.12,1.49 -0.19,3.02 -0.19,4.53 0,7.71 1.62,15.36 4.73,22.4l-25.4 0.01c-2.94,-7 -4.46,-14.54 -4.46,-22.14 0,-1.71 0.08,-3.42 0.23,-5.12l0 -35.41c0,-25.4 -11.88,-33.46 -32.84,-33.46l-17.66 0 0 96.13 -25.09 0 0 -225.09 50.18 -0.21zm-6.4 106.04c19.93,0 31.8,-6.51 31.8,-30.98l0 -21.58c0,-20.65 -7.43,-30.98 -26.02,-30.98l-24.47 0 0 83.53 18.69 0zm-170.88 -51.63c0,-34.38 17.14,-56.58 51.63,-56.58 34.49,0 51.63,22.2 51.63,56.58l0 116.47c0,34.07 -17.04,56.58 -51.63,56.58 -34.59,0 -51.63,-22.51 -51.63,-56.58l0 -116.47zm24.78 117.71c0,20.65 8.68,32.52 26.74,32.52 18.07,0 26.64,-11.88 26.64,-32.52l0 -119.05c0,-20.65 -8.36,-32.52 -26.64,-32.52 -18.28,0 -26.74,12.18 -26.74,32.52l0 119.05zm-55.24 -67.32l0 22.82 -51.63 0 0 97.47 -25.09 0 0 -225.09 89.42 0 0 22.82 -64.33 0 0 81.98 51.63 0zm677.54 -1504.59c35.41,0 50.18,17.97 50.18,51.63l0 18.38c0,24.78 -8.68,40.16 -27.98,46.26 20.65,6.09 28.29,22.82 28.29,46.98l0 35.11c-0.12,1.5 -0.19,3.03 -0.19,4.54 0,7.71 1.62,15.36 4.73,22.4l-25.4 0c-2.92,-7.08 -4.44,-14.68 -4.44,-22.35 0,-1.64 0.07,-3.29 0.21,-4.92l0 -35.41c0,-25.4 -11.88,-33.46 -32.84,-33.46l-17.66 0.01 0 96.33 -25.5 0 0 -225.09 50.6 -0.41zm-6.4 106.14c19.93,0 31.8,-6.51 31.8,-30.98l0 -21.58c0,-20.65 -7.33,-30.98 -26.02,-30.98l-24.47 0.01 0 83.32 18.69 0.2zm-171.19 -51.83c0,-34.38 17.04,-56.58 51.63,-56.58 34.59,0 51.63,22.2 51.63,56.58l0 116.47c0,34.07 -17.04,56.58 -51.63,56.58 -34.59,0 -51.63,-22.51 -51.63,-56.58l0 -116.47zm24.78 117.71c0,20.65 8.68,32.52 26.64,32.52 17.96,0 26.74,-11.88 26.74,-32.52l-0 -118.95c0,-20.65 -8.36,-32.52 -26.74,-32.52 -18.38,0 -26.64,12.18 -26.64,32.52l0 118.95zm-99.43 -172.02c35.41,0 50.18,17.97 50.18,51.63l0 18.38c0,24.78 -8.68,40.16 -27.98,46.26 20.65,6.09 28.29,22.82 28.29,46.98l0 35.11c-0.12,1.5 -0.19,3.03 -0.19,4.54 0,7.71 1.62,15.36 4.73,22.4l-25.4 0c-2.93,-7.08 -4.44,-14.68 -4.44,-22.35 0,-1.64 0.07,-3.29 0.21,-4.92l0 -35.41c0,-25.4 -11.88,-33.46 -32.84,-33.46l-17.65 0.01 0 96.33 -25.09 0 0 -225.09 50.18 -0.41zm-5.88 106.14c19.93,0 31.8,-6.51 31.8,-30.98l0 -21.58c0,-20.65 -7.33,-30.98 -26.02,-30.98l-24.47 0.01 0 83.32 18.69 0.2zm-120.8 -106.14c35.31,0 50.18,17.97 50.18,51.63l0 18.38c0,24.78 -8.68,40.16 -27.98,46.26 20.65,6.09 28.29,22.82 28.29,46.98l0 35.11c-0.12,1.5 -0.19,3.02 -0.19,4.53 0,7.7 1.58,15.34 4.62,22.42l-25.4 0c-2.87,-7.04 -4.35,-14.59 -4.35,-22.2 0,-1.68 0.07,-3.38 0.21,-5.06l0 -35.41c0,-25.4 -11.88,-33.46 -32.84,-33.46l-17.65 0 0 96.33 -25.09 0 0 -225.09 50.18 -0.41zm-6.51 106.14c20.03,0 31.91,-6.51 31.91,-30.98l0 -21.58c0,-20.65 -7.43,-30.98 -26.02,-30.98l-24.47 0.01 0 83.32 18.59 0.2z"/>
   </clipPath>
  <linearGradient id="id2" gradientUnits="objectBoundingBox" x1="14.1697%" y1="15.1195%" x2="85.8303%" y2="84.8805%">
   <stop offset="0" style="stop-opacity:1; stop-color:#7480FF"/>
   <stop offset="1" style="stop-opacity:1; stop-color:#FF55DA"/>
  </linearGradient>
 </defs>
 <g id="Layer_x0020_1">
  <metadata id="CorelCorpID_0Corel-Layer"/>
  <g id="freepik--background-simple--inject-19">
   <path class="fil0" d="M172.36 2093.67c0,0 23.95,743.41 644.6,1239.02 620.65,495.61 1480.73,531.02 2176.96,578.21 696.23,47.19 1231.07,-347.13 1311.3,-942.9 80.23,-595.76 -451.42,-770.67 -740.11,-1448.93 -288.69,-678.26 -262.57,-901.18 -873.31,-1318.32 -610.73,-417.14 -1566.23,-160.97 -2067.1,553.43 -500.88,714.4 -452.35,1339.49 -452.35,1339.49z"/>
   <path class="fil1" d="M172.36 2093.67c0,0 23.95,743.41 644.6,1239.02 620.65,495.61 1480.73,531.02 2176.96,578.21 696.23,47.19 1231.07,-347.13 1311.3,-942.9 80.23,-595.76 -451.42,-770.67 -740.11,-1448.93 -288.69,-678.26 -262.57,-901.18 -873.31,-1318.32 -610.73,-417.14 -1566.23,-160.97 -2067.1,553.43 -500.88,714.4 -452.35,1339.49 -452.35,1339.49z"/>
  </g>
  <path class="fil2" d="M456.79 1116.66l0 -260.06c0,-95.83 39.82,-182.74 104.12,-245.68 64.27,-62.92 152.99,-101.9 250.79,-101.9 97.8,0 186.52,38.97 250.79,101.9 64.29,62.94 104.12,149.85 104.12,245.68l0 260.06 127.04 0 0 -260.06c0,-130.03 -54.04,-247.96 -141.28,-333.38 -87.26,-85.42 -207.76,-138.35 -340.67,-138.35 -132.91,0 -253.41,52.92 -340.67,138.35 -87.24,85.42 -141.28,203.35 -141.28,333.38l0 260.06 127.04 0zm12.04 -260.06l0 261.61 685.74 -1.17 0 -260.44c0,-92.49 -38.44,-176.37 -100.5,-237.12 -62.08,-60.77 -147.81,-98.42 -242.37,-98.42 -94.56,0 -180.3,37.64 -242.37,98.42 -62.06,60.75 -100.5,144.63 -100.5,237.12zm836.86 0l0 260.18 31.77 -0.08c3.32,0 6.02,2.7 6.02,6.02l0 883.07c0,3.32 -2.7,6.02 -6.02,6.02l-1065.35 0c-3.32,0 -6.02,-2.7 -6.02,-6.02l0 -881.25c0.02,-3.31 2.71,-6 6.02,-6l45.6 -0.08 0 -261.86c0,-133.37 55.42,-254.33 144.9,-341.94 89.45,-87.57 212.93,-141.83 349.09,-141.83 136.16,0 259.64,54.26 349.09,141.83 89.48,87.61 144.9,208.57 144.9,341.94zm-1027.56 273.93l0 869.25 1053.31 0 0 -871.04 -1053.31 1.79zm631.43 359.77c-0.99,-29.54 -13.59,-56.07 -33.35,-75.24 -19.82,-19.24 -46.88,-31.07 -76.64,-31.07 -29.75,0 -56.82,11.83 -76.64,31.07 -19.84,19.26 -32.47,45.94 -33.36,75.63 0.14,19.81 5.75,38.82 15.72,55.17 9.99,16.4 24.37,30.13 41.97,39.34 2.22,1.16 3.41,3.52 3.2,5.88l-18.88 193.51 135.96 0 -18.87 -193.51c-0.25,-2.59 1.19,-4.95 3.42,-6 17.51,-9.21 31.8,-22.89 41.76,-39.22 9.9,-16.25 15.51,-35.13 15.72,-54.81l-0.02 -0.75zm-24.97 -83.85c21.96,21.31 35.95,50.85 36.98,83.75l0.01 0.38c-0.13,22.13 -6.37,43.33 -17.47,61.54 -10.41,17.08 -25.12,31.56 -43.1,41.76l19.18 196.74c0,3.32 -2.7,6.02 -6.02,6.02l-149.2 0 -0.57 -0.05c-3.3,-0.31 -5.72,-3.24 -5.41,-6.54l19.15 -196.16c-17.97,-10.2 -32.69,-24.68 -43.1,-41.76 -11.07,-18.16 -17.3,-39.29 -17.46,-61.34l0 -0.37c0.98,-32.98 14.98,-62.59 36.98,-83.95 22.01,-21.37 52.04,-34.51 85.01,-34.51 32.98,0 63,13.13 85.01,34.5z"/>
  <g style="clip-path:url(#id0)">
   <g id="_2603783093936">
    <rect class="fil3" x="150.16" y="379.99" width="1309.24" height="1624.67"/>
   </g>
  </g>
  <path class="fil4" d="M456.79 1116.66l0 -260.06c0,-95.83 39.82,-182.74 104.12,-245.68 64.27,-62.92 152.99,-101.9 250.79,-101.9 97.8,0 186.52,38.97 250.79,101.9 64.29,62.94 104.12,149.85 104.12,245.68l0 260.06 127.04 0 0 -260.06c0,-130.03 -54.04,-247.96 -141.28,-333.38 -87.26,-85.42 -207.76,-138.35 -340.67,-138.35 -132.91,0 -253.41,52.92 -340.67,138.35 -87.24,85.42 -141.28,203.35 -141.28,333.38l0 260.06 127.04 0zm12.04 -260.06l0 261.61 685.74 -1.17 0 -260.44c0,-92.49 -38.44,-176.37 -100.5,-237.12 -62.08,-60.77 -147.81,-98.42 -242.37,-98.42 -94.56,0 -180.3,37.64 -242.37,98.42 -62.06,60.75 -100.5,144.63 -100.5,237.12zm836.86 0l0 260.18 31.77 -0.08c3.32,0 6.02,2.7 6.02,6.02l0 883.07c0,3.32 -2.7,6.02 -6.02,6.02l-1065.35 0c-3.32,0 -6.02,-2.7 -6.02,-6.02l0 -881.25c0.02,-3.31 2.71,-6 6.02,-6l45.6 -0.08 0 -261.86c0,-133.37 55.42,-254.33 144.9,-341.94 89.45,-87.57 212.93,-141.83 349.09,-141.83 136.16,0 259.64,54.26 349.09,141.83 89.48,87.61 144.9,208.57 144.9,341.94zm-1027.56 273.93l0 869.25 1053.31 0 0 -871.04 -1053.31 1.79zm631.43 359.77c-0.99,-29.54 -13.59,-56.07 -33.35,-75.24 -19.82,-19.24 -46.88,-31.07 -76.64,-31.07 -29.75,0 -56.82,11.83 -76.64,31.07 -19.84,19.26 -32.47,45.94 -33.36,75.63 0.14,19.81 5.75,38.82 15.72,55.17 9.99,16.4 24.37,30.13 41.97,39.34 2.22,1.16 3.41,3.52 3.2,5.88l-18.88 193.51 135.96 0 -18.87 -193.51c-0.25,-2.59 1.19,-4.95 3.42,-6 17.51,-9.21 31.8,-22.89 41.76,-39.22 9.9,-16.25 15.51,-35.13 15.72,-54.81l-0.02 -0.75zm-24.97 -83.85c21.96,21.31 35.95,50.85 36.98,83.75l0.01 0.38c-0.13,22.13 -6.37,43.33 -17.47,61.54 -10.41,17.08 -25.12,31.56 -43.1,41.76l19.18 196.74c0,3.32 -2.7,6.02 -6.02,6.02l-149.2 0 -0.57 -0.05c-3.3,-0.31 -5.72,-3.24 -5.41,-6.54l19.15 -196.16c-17.97,-10.2 -32.69,-24.68 -43.1,-41.76 -11.07,-18.16 -17.3,-39.29 -17.46,-61.34l0 -0.37c0.98,-32.98 14.98,-62.59 36.98,-83.95 22.01,-21.37 52.04,-34.51 85.01,-34.51 32.98,0 63,13.13 85.01,34.5z"/>
  <g id="freepik--Character--inject-19">
   <polygon class="fil2 str0" points="2001.57,2034.4 1736.32,2016.95 1736.32,2012.61 1703.69,2014.78 1671.17,2012.61 1671.17,2016.95 1405.91,2034.4 1210.25,3643.06 1405.91,3643.06 1697.18,2360.47 1710.29,2360.47 2001.57,3643.06 2197.23,3643.06 "/>
   <path class="fil5 str0" d="M1210.25 3642.96l-47.8 73.93 -147.86 65.26c-15.86,8.75 -25.79,25.36 -26.02,43.47l0 56.48 421.67 -0c1.25,-15.09 1.87,-30.47 1.87,-45.64 0,-15.17 -0.62,-30.54 -1.85,-45.65 -4.34,-43.47 -4.34,-147.86 -4.34,-147.86l-195.68 0.01z"/>
   <path class="fil2 str0" d="M988.57 3834.28l0 47.8 421.68 0c0,0 1.96,-20.65 1.96,-47.8l-423.64 0z"/>
   <path class="fil5 str0" d="M2196.41 3642.96l47.8 73.93 147.86 65.26c15.86,8.75 25.8,25.36 26.02,43.47l0 56.48 -421.68 -0c-1.24,-15.09 -1.86,-30.47 -1.86,-45.64 0,-15.17 0.62,-30.54 1.85,-45.65 4.34,-43.47 4.34,-147.86 4.34,-147.86l195.68 0.01z"/>
   <path class="fil2 str0" d="M2418.29 3834.28l0 47.8 -421.89 0c0,0 -1.86,-20.65 -1.96,-47.8l423.85 0z"/>
   <path class="fil0 str0" d="M1293.57 1286.03c0,0 -309.76,435.31 -309.76,467.21 0,31.91 49.25,278.26 127.52,301.39 78.26,23.13 121.73,-17.35 136.19,-98.5 14.46,-81.15 -34.79,-197.11 -34.79,-197.11l144.55 -130.41 -63.71 -342.59z"/>
   <path class="fil6 str0" d="M1233.48 1944.57c0,0 89.83,-14.56 113.06,-8.78 23.23,5.78 40.58,60.92 40.58,60.92 0,0 8.68,81.15 -5.88,98.5 -14.56,17.35 -84.05,37.69 -112.96,43.47 -28.91,5.78 -89.93,-60.82 -113.58,-101.39 -23.64,-40.58 17.86,-110.17 78.78,-92.72z"/>
   <polygon class="fil0 str0" points="1358.72,1266.31 1293.57,1286.03 1396.2,1971.11 2006.22,1971.11 2099.04,1289.95 2016.13,1258.36 1710.09,1191.24 "/>
   <polygon class="fil2 str0" points="2039.77,1495.32 2026.04,1594.03 1919.38,1619.63 1810.76,1576.27 1818.71,1487.37 "/>
   <circle class="fil5 str0" cx="1926.3" cy="1575.24" r="18.79"/>
   <polygon class="fil2 str0" points="1644.94,1317.62 1702.24,1384.74 1629.14,1850.61 1706.17,1973.07 1797.03,1844.73 1720,1386.7 1785.16,1323.51 1716.08,1234.71 "/>
   <polygon class="fil2 str0" points="1589.7,1201.16 1327.13,1266.31 1335.08,1297.9 1591.66,1226.76 "/>
   <polygon class="fil2 str0" points="1804.87,1193.2 2067.45,1258.36 2059.6,1289.95 1802.91,1218.92 "/>
   <g>
    <path class="fil0" d="M2067.24 1258.36c0,0 99.33,22.4 160.14,57.2 60.82,34.8 75.38,113.06 40.58,200 -34.8,86.94 -141.97,75.38 -191.22,51.63 -49.25,-23.75 -63.81,-110.07 -55.14,-147.75l45.64 -161.07zm0 0l0 0 0 0z"/>
    <path id="_1" class="fil4 str0" d="M2067.24 1258.36c0,0 99.33,22.4 160.14,57.2 60.82,34.8 75.38,113.06 40.58,200 -34.8,86.94 -141.97,75.38 -191.22,51.63 -49.25,-23.75 -63.81,-110.07 -55.14,-147.75m45.64 -161.07l0 0 0 0z"/>
   </g>
   <polygon class="fil0 str0" points="1601.57,1167.6 1571.94,1187.32 1579.79,1386.7 1708.13,1295.94 1842.36,1388.66 1854.23,1191.24 1818.71,1161.61 "/>
   <path class="fil2 str0" d="M1860.73 930.43c0,0 72.9,-17.76 86.63,-90.65 13.73,-72.89 -117.6,-161.59 -208.67,-177.28 -91.07,-15.69 -224.57,78.78 -246.26,143.83 -21.68,65.05 62.99,129.99 153.64,143.83 90.65,13.83 214.66,-19.72 214.66,-19.72z"/>
   <path class="fil6 str0" d="M1588.98 942.3c0,0 -39.44,-61.12 -49.25,-7.95 -9.81,53.17 31.49,76.82 49.25,74.86 17.76,-1.96 0,-66.91 0,-66.91z"/>
   <path class="fil6 str0" d="M1845.14 942.3c0,0 39.44,-61.12 49.25,-7.95 9.81,53.17 -30.98,76.82 -49.25,74.86 -18.28,-1.96 0,-66.91 0,-66.91z"/>
   <polygon class="fil6 str0" points="1597.65,1062.9 1597.65,1193.2 1708.13,1295.94 1832.55,1189.28 1832.55,1066.93 "/>
   <path class="fil6 str0" d="M1581.13 902.86c0,0 -5.99,122.15 3.92,161.59 9.91,39.44 74.86,122.15 126.07,139.91 51.22,17.76 122.15,-88.69 137.94,-123.9 15.8,-35.21 9.81,-185.23 9.81,-185.23 0,0 -21.58,-51.63 -64.94,-66.91 -43.36,-15.28 -177.39,-43.16 -212.8,74.55z"/>
   <path class="fil2" d="M1663.01 967.7c0,9.29 -4.23,16.83 -9.5,16.83 -5.26,0 -9.5,-7.54 -9.5,-16.83 0,-9.3 4.23,-16.83 9.5,-16.83 5.26,0 9.5,7.54 9.5,16.83z"/>
   <path class="fil2" d="M1783.91 967.7c0,9.29 -4.23,16.83 -9.5,16.83 -5.26,0 -9.5,-7.54 -9.5,-16.83 0,-9.3 4.23,-16.83 9.5,-16.83 5.26,0 9.5,7.54 9.5,16.83z"/>
   <g>
    <path class="fil6" d="M1683.56 1014.78c-1,-0.24 -2.03,-0.36 -3.07,-0.36 -7.3,0 -13.22,5.92 -13.22,13.22 0,7.3 5.92,13.22 13.22,13.22 1.03,0 2.06,-0.12 3.07,-0.36 0.12,0 0.26,0 0.38,0 4.02,0 7.92,-1.35 11.08,-3.82 6.29,7.4 15.52,11.67 25.24,11.67 9.33,0 18.24,-3.94 24.52,-10.84 3.01,1.96 6.53,3 10.12,3 0.07,0 0.14,-0 0.21,-0 1.01,0.25 2.04,0.37 3.07,0.37 7.3,0 13.22,-5.92 13.22,-13.22 0,-7.3 -5.92,-13.22 -13.22,-13.22 -1.03,0 -2.06,0.12 -3.07,0.36l-71.56 -0zm0 0l0 0 0 0z"/>
    <path id="_1_0" class="fil4 str0" d="M1683.56 1014.78c-1,-0.24 -2.03,-0.36 -3.07,-0.36 -7.3,0 -13.22,5.92 -13.22,13.22 0,7.3 5.92,13.22 13.22,13.22 1.03,0 2.06,-0.12 3.07,-0.36 0.12,0 0.26,0 0.38,0 4.02,0 7.92,-1.35 11.08,-3.82 6.29,7.4 15.52,11.67 25.24,11.67 9.33,0 18.24,-3.94 24.52,-10.84 3.01,1.96 6.53,3 10.12,3 0.07,0 0.14,-0 0.21,-0 1.01,0.25 2.04,0.37 3.07,0.37 7.3,0 13.22,-5.92 13.22,-13.22 0,-7.3 -5.92,-13.22 -13.22,-13.22 -1.03,0 -2.06,0.12 -3.07,0.36m-71.56 -0l0 0 0 0z"/>
   </g>
   <line class="fil4 str0" x1="1699.25" y1="1095.63" x2="1740.45" y2= "1095.63" />
   <path class="fil2 str0" d="M1576.59 932.49c0,0 1.44,39.65 14.66,29.32 13.22,-10.33 17.55,-77.65 5.88,-86.42 -11.67,-8.78 -20.55,36.66 -20.55,57.1z"/>
   <path class="fil2 str0" d="M1830.9 932.49c0,0 1.55,39.65 14.66,29.32 13.11,-10.33 17.65,-77.65 5.88,-86.42 -11.77,-8.78 -20.55,36.66 -20.55,57.1z"/>
   <path class="fil5 str0" d="M1576.59 900.28c0,0 4.44,3.61 4.34,5.37 19.1,10.33 62.99,29.32 134.23,33.14 3.11,0.1 6.33,0.16 9.47,0.16 47.34,0 93.91,-12.29 135.09,-35.59 0,-5.26 0,-8.36 0,-8.47 -1.76,-46.15 -36.04,-76.92 -78.47,-88.69 -17.46,-4.77 -35.54,-7.24 -53.65,-7.24 -24.87,0 -49.56,4.61 -72.75,13.54 -20.44,7.72 -38.53,20.73 -52.34,37.69 -5.27,5.79 -33.15,44.3 -25.92,50.08z"/>
   <path class="fil5 str0" d="M1581.13 902.86c33.04,7.31 66.93,11.01 100.77,11.01 11.11,0 22.39,-0.46 33.44,-1.2 84.77,-3.92 143.73,-9.81 143.73,-9.81 -38.9,36.48 -89.28,58.59 -142.47,62.56 -3.35,0.22 -6.75,0.34 -10.13,0.34 -49.35,0 -95.84,-23.34 -125.33,-62.9l-0.01 0z"/>
   <polygon class="fil2 str0" points="1364.71,1495.32 1378.44,1594.03 1485.11,1619.63 1593.62,1576.27 1585.78,1487.37 "/>
   <circle class="fil5 str0" cx="1478.19" cy="1575.24" r="18.79"/>
   <rect class="fil5 str0" x="1387.12" y="1964.81" width="626.02" height="98.5"/>
   <path class="fil5 str0" d="M1371.22 1970.59l136.19 0c15.23,0 27.57,12.34 27.57,27.57l-0 66.6c0,15.22 -12.34,27.56 -27.56,27.56l-136.19 0.01c-15.22,-0.01 -27.56,-12.35 -27.56,-27.57l-0 -66.59c0,-15.23 12.35,-27.57 27.57,-27.57z"/>
   <path class="fil5 str0" d="M1869.72 1970.59l136.19 0c15.23,0 27.57,12.34 27.57,27.57l-0 66.6c0,15.22 -12.34,27.56 -27.56,27.56l-136.19 0.01c-15.22,-0.01 -27.56,-12.35 -27.56,-27.57l-0 -66.59c0,-15.23 12.35,-27.57 27.57,-27.57z"/>
   <rect class="fil7 str0" x="1642.15" y="1970.59" width="136.19" height="86.94"/>
   <path class="fil4 str0" d="M1213.14 1759.02c0,0 -86.94,-5.78 -118.84,-60.92"/>
   <ellipse class="fil0 str0" cx="2179.78" cy="1353.25" rx="143.52" ry="150.75"/>
   <ellipse class="fil0 str0" cx="2179.78" cy="1276.94" rx="112.34" ry="100.67"/>
   <ellipse class="fil6 str0" cx="2179.78" cy="1202.91" rx="112.34" ry="100.67"/>
   <path class="fil6 str0" d="M1999.3 985.88c0,0 1.96,148.48 9.5,192.25 7.54,43.78 38.1,100.88 80.02,100.88 27.87,-0.66 55.61,-5.84 81.87,-15.17 26.26,-9.33 49.46,26.64 97.06,19 47.6,-7.64 39.96,-74.24 39.96,-103.25 0,-29.01 -5.68,-243.68 -5.68,-243.68 0,0 3.82,-20.65 -15.28,-24.68 -9.34,-2.09 -18.9,-3.41 -28.48,-3.82l0 -45.74c-6.44,-9.6 -17.25,-15.36 -28.82,-15.36 -1.2,0 -2.42,0.06 -3.61,0.19 -24.68,0 -26.64,5.68 -26.64,5.68l0 -41.92c0,0 -20.65,-33.35 -47.6,-17.14 -11.03,6.33 -18.16,17.77 -19,30.46l-1.96 40.06c0,0 -45.64,-17.14 -49.46,9.5 -3.82,26.64 -11.46,190.81 -11.46,190.81 -2.69,-25.78 -7.79,-51.37 -15.16,-76.2 -9.52,-24.78 -55.26,-24.78 -55.26,-1.86z"/>
   <line class="fil4 str0" x1="2130.63" y1="864.04" x2="2134.45" y2= "1039.15" />
   <line class="fil4 str0" x1="2199.2" y1="852.58" x2="2201.15" y2= "1041.01" />
   <line class="fil4 str0" x1="2258.25" y1="907.82" x2="2254.43" y2= "1039.15" />
   <line class="fil4 str0" x1="2105.96" y1="1037.29" x2="2279.21" y2= "1044.83" />
   <path class="fil4 str0" d="M2069.72 1063.94c0.1,14.56 7.03,28.25 18.69,36.96 18.79,11.77 61.12,42.33 65.77,91.69"/>
  </g>
  <path class="fil2" d="M3213.33 597.34l0 22.61 -55.03 0 0 80.12 67.63 -0 0 23.13 -92.92 0 0 -225.09 92.92 0 0 22.82 -67.63 0 0 76.82 55.03 -0.41zm734.12 474.65c0,-72.28 -25.19,-91.89 -65.46,-91.89 -40.27,0 -65.46,21.79 -65.46,79.3l0 51.63 -119.36 0 0 -43.68c0,-128.55 64.22,-202.06 188.33,-202.06 124.11,0 188.33,73.51 188.33,202.06l0 20.65c0,86.11 -27.57,140.11 -88.49,165.2 63.19,27.57 88.49,87.25 88.49,168.82l0 63.19c0,128.65 -64.33,202.06 -188.33,202.06 -124,0 -188.33,-73.41 -188.33,-202.06l0 -66.6 119.36 0 0 74.65c0,57.41 25.3,79.2 65.46,79.2 40.17,0 65.46,-19.52 65.46,-90.65l0 -63.19c0,-74.65 -25.19,-102.22 -82.6,-102.22l-42.33 0 0 -114.61 49.35 0c47.08,0 75.79,-20.65 75.79,-84.98l-0.21 -44.82zm-708.51 -4.64c0,-128.55 67.73,-202.06 191.74,-202.06 124,0 191.84,73.51 191.84,202.06l0 418.07c0,128.65 -67.84,202.06 -191.84,202.06 -124.01,0 -191.74,-73.41 -191.74,-202.06l0 -418.07zm126.28 426.12c0,57.41 25.3,79.2 65.46,79.2 40.17,0 65.46,-21.79 65.46,-79.2l0 -433.66c0,-57.51 -25.19,-79.3 -65.46,-79.3 -40.27,0 -65.46,21.79 -65.46,79.3l0 433.66zm-600.62 -75.79l229.74 -543.21 137.84 0 0 543.21 59.68 0 0 114.82 -59.68 0 0 145.79 -123.9 0 0 -145.79 -243.68 0 0 -114.82zm243.47 0l0 -302.11 -127.41 302.01 127.41 0.1zm846.25 704.9l-22.51 0 0 -225.09 32.01 0 51.63 162.72 0 -162.72 22.2 0 0 225.09 -26.12 0 -57.51 -182.03 0.31 182.03zm-57.92 -125.45l0 22.51 -55.04 0 0 80.12 67.63 0 0 22.82 -92.92 0 0 -225.09 92.92 0 0 22.82 -67.63 0 0 76.82 55.04 0zm-154.67 -99.64c35,0 51.11,20.65 51.11,55.96l0 113.58c0,34.49 -16.11,55.65 -51.11,55.65l-52.76 0 0 -225.09 52.76 -0.1zm0 202.27c17.97,0 26.64,-11.25 26.64,-31.8l0 -116.06c0,-20.65 -8.68,-31.8 -26.95,-31.8l-27.05 0 0 179.45 27.36 0.21zm-127.41 -202.27c35.11,0 51.63,20.65 51.63,55.96l0 113.58c0,34.49 -16.11,55.65 -51.63,55.65l-52.66 0 0 -225.09 52.66 -0.1zm0 202.27c18.07,0 26.74,-11.25 26.74,-31.8l0 -116.06c0,-20.65 -8.68,-31.8 -27.05,-31.8l-27.05 0 0 179.45 27.36 0.21zm-78.47 -202.27l0 225.09 -25.09 0 0 -225.09 25.09 0zm-100.67 0c35.11,0 48.94,16.73 48.94,49.87l0 10.33c0,23.85 -6.81,38.61 -26.43,44.71 21.89,6.2 30.25,23.54 30.25,48.32l0 18.9c0,33.87 -16.42,52.76 -51.63,52.76l-51.63 0 0 -225.09 50.49 0.21zm-6.09 95.51c19.93,0 30.25,-6.4 30.25,-29.94l0 -13.22c0,-19.93 -6.81,-29.53 -24.78,-29.53l-24.78 0 0 72.28 19.31 0.41zm7.43 106.76c18.28,0 26.64,-9.6 26.64,-30.98l0 -19.93c0,-25.09 -10.33,-33.46 -31.49,-33.46l-21.89 0 0 83.95 26.74 0.41zm-128.34 -202.27c35.31,0 50.18,17.97 50.18,51.63l0 18.38c0,24.78 -8.68,40.16 -27.98,46.26 20.65,6.09 28.29,22.82 28.29,46.98l0 35.11c-0.12,1.49 -0.19,3.02 -0.19,4.53 0,7.71 1.62,15.36 4.73,22.4l-25.4 0.01c-2.94,-7 -4.46,-14.54 -4.46,-22.14 0,-1.71 0.08,-3.42 0.23,-5.12l0 -35.41c0,-25.4 -11.88,-33.46 -32.84,-33.46l-17.66 0 0 96.13 -25.09 0 0 -225.09 50.18 -0.21zm-6.4 106.04c19.93,0 31.8,-6.51 31.8,-30.98l0 -21.58c0,-20.65 -7.43,-30.98 -26.02,-30.98l-24.47 0 0 83.53 18.69 0zm-170.88 -51.63c0,-34.38 17.14,-56.58 51.63,-56.58 34.49,0 51.63,22.2 51.63,56.58l0 116.47c0,34.07 -17.04,56.58 -51.63,56.58 -34.59,0 -51.63,-22.51 -51.63,-56.58l0 -116.47zm24.78 117.71c0,20.65 8.68,32.52 26.74,32.52 18.07,0 26.64,-11.88 26.64,-32.52l0 -119.05c0,-20.65 -8.36,-32.52 -26.64,-32.52 -18.28,0 -26.74,12.18 -26.74,32.52l0 119.05zm-55.24 -67.32l0 22.82 -51.63 0 0 97.47 -25.09 0 0 -225.09 89.42 0 0 22.82 -64.33 0 0 81.98 51.63 0zm677.54 -1504.59c35.41,0 50.18,17.97 50.18,51.63l0 18.38c0,24.78 -8.68,40.16 -27.98,46.26 20.65,6.09 28.29,22.82 28.29,46.98l0 35.11c-0.12,1.5 -0.19,3.03 -0.19,4.54 0,7.71 1.62,15.36 4.73,22.4l-25.4 0c-2.92,-7.08 -4.44,-14.68 -4.44,-22.35 0,-1.64 0.07,-3.29 0.21,-4.92l0 -35.41c0,-25.4 -11.88,-33.46 -32.84,-33.46l-17.66 0.01 0 96.33 -25.5 0 0 -225.09 50.6 -0.41zm-6.4 106.14c19.93,0 31.8,-6.51 31.8,-30.98l0 -21.58c0,-20.65 -7.33,-30.98 -26.02,-30.98l-24.47 0.01 0 83.32 18.69 0.2zm-171.19 -51.83c0,-34.38 17.04,-56.58 51.63,-56.58 34.59,0 51.63,22.2 51.63,56.58l0 116.47c0,34.07 -17.04,56.58 -51.63,56.58 -34.59,0 -51.63,-22.51 -51.63,-56.58l0 -116.47zm24.78 117.71c0,20.65 8.68,32.52 26.64,32.52 17.96,0 26.74,-11.88 26.74,-32.52l-0 -118.95c0,-20.65 -8.36,-32.52 -26.74,-32.52 -18.38,0 -26.64,12.18 -26.64,32.52l0 118.95zm-99.43 -172.02c35.41,0 50.18,17.97 50.18,51.63l0 18.38c0,24.78 -8.68,40.16 -27.98,46.26 20.65,6.09 28.29,22.82 28.29,46.98l0 35.11c-0.12,1.5 -0.19,3.03 -0.19,4.54 0,7.71 1.62,15.36 4.73,22.4l-25.4 0c-2.93,-7.08 -4.44,-14.68 -4.44,-22.35 0,-1.64 0.07,-3.29 0.21,-4.92l0 -35.41c0,-25.4 -11.88,-33.46 -32.84,-33.46l-17.65 0.01 0 96.33 -25.09 0 0 -225.09 50.18 -0.41zm-5.88 106.14c19.93,0 31.8,-6.51 31.8,-30.98l0 -21.58c0,-20.65 -7.33,-30.98 -26.02,-30.98l-24.47 0.01 0 83.32 18.69 0.2zm-120.8 -106.14c35.31,0 50.18,17.97 50.18,51.63l0 18.38c0,24.78 -8.68,40.16 -27.98,46.26 20.65,6.09 28.29,22.82 28.29,46.98l0 35.11c-0.12,1.5 -0.19,3.02 -0.19,4.53 0,7.7 1.58,15.34 4.62,22.42l-25.4 0c-2.87,-7.04 -4.35,-14.59 -4.35,-22.2 0,-1.68 0.07,-3.38 0.21,-5.06l0 -35.41c0,-25.4 -11.88,-33.46 -32.84,-33.46l-17.65 0 0 96.33 -25.09 0 0 -225.09 50.18 -0.41zm-6.51 106.14c20.03,0 31.91,-6.51 31.91,-30.98l0 -21.58c0,-20.65 -7.43,-30.98 -26.02,-30.98l-24.47 0.01 0 83.32 18.59 0.2z"/>
  <g style="clip-path:url(#id1)">
   <g id="_2603783061872">
    <rect class="fil3" x="2764.6" y="497.91" width="1309.24" height="1624.67"/>
   </g>
  </g>
  <path class="fil4" d="M3213.33 597.34l0 22.61 -55.03 0 0 80.12 67.63 -0 0 23.13 -92.92 0 0 -225.09 92.92 0 0 22.82 -67.63 0 0 76.82 55.03 -0.41zm734.12 474.65c0,-72.28 -25.19,-91.89 -65.46,-91.89 -40.27,0 -65.46,21.79 -65.46,79.3l0 51.63 -119.36 0 0 -43.68c0,-128.55 64.22,-202.06 188.33,-202.06 124.11,0 188.33,73.51 188.33,202.06l0 20.65c0,86.11 -27.57,140.11 -88.49,165.2 63.19,27.57 88.49,87.25 88.49,168.82l0 63.19c0,128.65 -64.33,202.06 -188.33,202.06 -124,0 -188.33,-73.41 -188.33,-202.06l0 -66.6 119.36 0 0 74.65c0,57.41 25.3,79.2 65.46,79.2 40.17,0 65.46,-19.52 65.46,-90.65l0 -63.19c0,-74.65 -25.19,-102.22 -82.6,-102.22l-42.33 0 0 -114.61 49.35 0c47.08,0 75.79,-20.65 75.79,-84.98l-0.21 -44.82zm-708.51 -4.64c0,-128.55 67.73,-202.06 191.74,-202.06 124,0 191.84,73.51 191.84,202.06l0 418.07c0,128.65 -67.84,202.06 -191.84,202.06 -124.01,0 -191.74,-73.41 -191.74,-202.06l0 -418.07zm126.28 426.12c0,57.41 25.3,79.2 65.46,79.2 40.17,0 65.46,-21.79 65.46,-79.2l0 -433.66c0,-57.51 -25.19,-79.3 -65.46,-79.3 -40.27,0 -65.46,21.79 -65.46,79.3l0 433.66zm-600.62 -75.79l229.74 -543.21 137.84 0 0 543.21 59.68 0 0 114.82 -59.68 0 0 145.79 -123.9 0 0 -145.79 -243.68 0 0 -114.82zm243.47 0l0 -302.11 -127.41 302.01 127.41 0.1zm846.25 704.9l-22.51 0 0 -225.09 32.01 0 51.63 162.72 0 -162.72 22.2 0 0 225.09 -26.12 0 -57.51 -182.03 0.31 182.03zm-57.92 -125.45l0 22.51 -55.04 0 0 80.12 67.63 0 0 22.82 -92.92 0 0 -225.09 92.92 0 0 22.82 -67.63 0 0 76.82 55.04 0zm-154.67 -99.64c35,0 51.11,20.65 51.11,55.96l0 113.58c0,34.49 -16.11,55.65 -51.11,55.65l-52.76 0 0 -225.09 52.76 -0.1zm0 202.27c17.97,0 26.64,-11.25 26.64,-31.8l0 -116.06c0,-20.65 -8.68,-31.8 -26.95,-31.8l-27.05 0 0 179.45 27.36 0.21zm-127.41 -202.27c35.11,0 51.63,20.65 51.63,55.96l0 113.58c0,34.49 -16.11,55.65 -51.63,55.65l-52.66 0 0 -225.09 52.66 -0.1zm0 202.27c18.07,0 26.74,-11.25 26.74,-31.8l0 -116.06c0,-20.65 -8.68,-31.8 -27.05,-31.8l-27.05 0 0 179.45 27.36 0.21zm-78.47 -202.27l0 225.09 -25.09 0 0 -225.09 25.09 0zm-100.67 0c35.11,0 48.94,16.73 48.94,49.87l0 10.33c0,23.85 -6.81,38.61 -26.43,44.71 21.89,6.2 30.25,23.54 30.25,48.32l0 18.9c0,33.87 -16.42,52.76 -51.63,52.76l-51.63 0 0 -225.09 50.49 0.21zm-6.09 95.51c19.93,0 30.25,-6.4 30.25,-29.94l0 -13.22c0,-19.93 -6.81,-29.53 -24.78,-29.53l-24.78 0 0 72.28 19.31 0.41zm7.43 106.76c18.28,0 26.64,-9.6 26.64,-30.98l0 -19.93c0,-25.09 -10.33,-33.46 -31.49,-33.46l-21.89 0 0 83.95 26.74 0.41zm-128.34 -202.27c35.31,0 50.18,17.97 50.18,51.63l0 18.38c0,24.78 -8.68,40.16 -27.98,46.26 20.65,6.09 28.29,22.82 28.29,46.98l0 35.11c-0.12,1.49 -0.19,3.02 -0.19,4.53 0,7.71 1.62,15.36 4.73,22.4l-25.4 0.01c-2.94,-7 -4.46,-14.54 -4.46,-22.14 0,-1.71 0.08,-3.42 0.23,-5.12l0 -35.41c0,-25.4 -11.88,-33.46 -32.84,-33.46l-17.66 0 0 96.13 -25.09 0 0 -225.09 50.18 -0.21zm-6.4 106.04c19.93,0 31.8,-6.51 31.8,-30.98l0 -21.58c0,-20.65 -7.43,-30.98 -26.02,-30.98l-24.47 0 0 83.53 18.69 0zm-170.88 -51.63c0,-34.38 17.14,-56.58 51.63,-56.58 34.49,0 51.63,22.2 51.63,56.58l0 116.47c0,34.07 -17.04,56.58 -51.63,56.58 -34.59,0 -51.63,-22.51 -51.63,-56.58l0 -116.47zm24.78 117.71c0,20.65 8.68,32.52 26.74,32.52 18.07,0 26.64,-11.88 26.64,-32.52l0 -119.05c0,-20.65 -8.36,-32.52 -26.64,-32.52 -18.28,0 -26.74,12.18 -26.74,32.52l0 119.05zm-55.24 -67.32l0 22.82 -51.63 0 0 97.47 -25.09 0 0 -225.09 89.42 0 0 22.82 -64.33 0 0 81.98 51.63 0zm677.54 -1504.59c35.41,0 50.18,17.97 50.18,51.63l0 18.38c0,24.78 -8.68,40.16 -27.98,46.26 20.65,6.09 28.29,22.82 28.29,46.98l0 35.11c-0.12,1.5 -0.19,3.03 -0.19,4.54 0,7.71 1.62,15.36 4.73,22.4l-25.4 0c-2.92,-7.08 -4.44,-14.68 -4.44,-22.35 0,-1.64 0.07,-3.29 0.21,-4.92l0 -35.41c0,-25.4 -11.88,-33.46 -32.84,-33.46l-17.66 0.01 0 96.33 -25.5 0 0 -225.09 50.6 -0.41zm-6.4 106.14c19.93,0 31.8,-6.51 31.8,-30.98l0 -21.58c0,-20.65 -7.33,-30.98 -26.02,-30.98l-24.47 0.01 0 83.32 18.69 0.2zm-171.19 -51.83c0,-34.38 17.04,-56.58 51.63,-56.58 34.59,0 51.63,22.2 51.63,56.58l0 116.47c0,34.07 -17.04,56.58 -51.63,56.58 -34.59,0 -51.63,-22.51 -51.63,-56.58l0 -116.47zm24.78 117.71c0,20.65 8.68,32.52 26.64,32.52 17.96,0 26.74,-11.88 26.74,-32.52l-0 -118.95c0,-20.65 -8.36,-32.52 -26.74,-32.52 -18.38,0 -26.64,12.18 -26.64,32.52l0 118.95zm-99.43 -172.02c35.41,0 50.18,17.97 50.18,51.63l0 18.38c0,24.78 -8.68,40.16 -27.98,46.26 20.65,6.09 28.29,22.82 28.29,46.98l0 35.11c-0.12,1.5 -0.19,3.03 -0.19,4.54 0,7.71 1.62,15.36 4.73,22.4l-25.4 0c-2.93,-7.08 -4.44,-14.68 -4.44,-22.35 0,-1.64 0.07,-3.29 0.21,-4.92l0 -35.41c0,-25.4 -11.88,-33.46 -32.84,-33.46l-17.65 0.01 0 96.33 -25.09 0 0 -225.09 50.18 -0.41zm-5.88 106.14c19.93,0 31.8,-6.51 31.8,-30.98l0 -21.58c0,-20.65 -7.33,-30.98 -26.02,-30.98l-24.47 0.01 0 83.32 18.69 0.2zm-120.8 -106.14c35.31,0 50.18,17.97 50.18,51.63l0 18.38c0,24.78 -8.68,40.16 -27.98,46.26 20.65,6.09 28.29,22.82 28.29,46.98l0 35.11c-0.12,1.5 -0.19,3.02 -0.19,4.53 0,7.7 1.58,15.34 4.62,22.42l-25.4 0c-2.87,-7.04 -4.35,-14.59 -4.35,-22.2 0,-1.68 0.07,-3.38 0.21,-5.06l0 -35.41c0,-25.4 -11.88,-33.46 -32.84,-33.46l-17.65 0 0 96.33 -25.09 0 0 -225.09 50.18 -0.41zm-6.51 106.14c20.03,0 31.91,-6.51 31.91,-30.98l0 -21.58c0,-20.65 -7.43,-30.98 -26.02,-30.98l-24.47 0.01 0 83.32 18.59 0.2z"/>
  <g id="freepik--security-barrier--inject-19">
   <polygon class="fil2 str1" points="496.47,3877.55 349.23,3877.55 545.51,2509.36 692.75,2509.36 "/>
   <polygon class="fil7 str1" points="790.94,3877.55 938.07,3877.55 741.79,2509.36 594.66,2509.36 "/>
   <polygon class="fil2 str1" points="2585.36,3877.55 2438.22,3877.55 2634.4,2509.36 2781.64,2509.36 "/>
   <polygon class="fil7 str1" points="2879.83,3877.55 3026.96,3877.55 2830.68,2509.36 2683.55,2509.36 "/>
   <rect class="fil0 str1" x="174.94" y="2294.8" width="2807.72" height="272.17"/>
   <rect class="fil0 str1" x="243.4" y="2294.8" width="2807.72" height="272.17"/>
   <polygon class="fil2" points="289.35,2566.97 527.65,2566.97 650.83,2294.8 412.53,2294.8 "/>
   <polygon class="fil2" points="1232.65,2294.8 994.35,2294.8 871.17,2566.97 1109.47,2566.97 "/>
   <polygon class="fil2" points="2978.02,2294.8 2739.72,2294.8 2616.64,2566.97 2854.94,2566.97 "/>
   <polygon class="fil2" points="2396.3,2294.8 2157.89,2294.8 2034.82,2566.97 2273.12,2566.97 "/>
   <polygon class="fil2" points="1814.48,2294.8 1576.17,2294.8 1452.99,2566.97 1691.3,2566.97 "/>
   <line class="fil4 str1" x1="3035.74" y1="2415.5" x2="2571.1" y2= "2415.5" />
   <line class="fil4 str1" x1="3027.58" y1="2461.03" x2="2954.27" y2= "2461.03" />
   <line class="fil4 str1" x1="231.52" y1="2449.68" x2="696.16" y2= "2449.68" />
   <line class="fil4 str1" x1="239.68" y1="2398.47" x2="826.56" y2= "2398.47" />
   <rect class="fil2 str0" x="3020.97" y="3817.87" width="796.49" height="59.78"/>
   <polygon class="fil0 str0" points="3683.02,3816.21 3155.41,3816.21 3362.22,2691.18 3476.21,2691.18 "/>
   <polygon class="fil7 str0" points="3285.4,3109.35 3553.14,3109.35 3527.43,2969.96 3311.01,2969.96 "/>
   <line class="fil4 str0" x1="3603.73" y1="3628.4" x2="3616.94" y2= "3705.32" />
   <line class="fil4 str0" x1="3453.09" y1="2753.34" x2="3587.11" y2= "3531.65" />
  </g>
  <g id="freepik--Floor--inject-19">
   <line class="fil4 str0" x1="4245.95" y1="3877.55" x2="4317.3" y2= "3877.55" />
   <line class="fil4 str0" x1="6.02" y1="3877.55" x2="4146.32" y2= "3877.55" />
  </g>
 </g>
</svg>
